<svg xmlns="http://www.w3.org/2000/svg" xmlns:xlink="http://www.w3.org/1999/xlink" viewBox="0 0 30 30"><defs><style>.cls-1{fill:url(#linear-gradient);}.cls-2{fill:url(#linear-gradient-2);}.cls-3{fill:url(#linear-gradient-3);}</style><linearGradient id="linear-gradient" x1="15" y1="30" x2="15" gradientUnits="userSpaceOnUse"><stop offset="0" stop-color="#cfcfcf"/><stop offset="1" stop-color="#fff"/></linearGradient><linearGradient id="linear-gradient-2" x1="15" y1="28.31" x2="15" y2="1.31" gradientUnits="userSpaceOnUse"><stop offset="0" stop-color="#fff"/><stop offset="1" stop-color="#cfcfcf"/></linearGradient><linearGradient id="linear-gradient-3" x1="15" y1="27.56" x2="15" y2="2.06" gradientUnits="userSpaceOnUse"><stop offset="0" stop-color="#a8a8a8"/><stop offset="1" stop-color="#fff"/></linearGradient></defs><title>Asset 19</title><g id="Layer_2" data-name="Layer 2"><g id="Layer_1-2" data-name="Layer 1"><path class="cls-1" d="M30,15A15,15,0,1,1,15,0,15,15,0,0,1,30,15ZM12.37,23.44l7.38-7.38a1.49,1.49,0,0,0,0-2.12L12.37,6.56a1.5,1.5,0,1,0-2.12,2.12L16.57,15l-6.32,6.32a1.49,1.49,0,0,0,0,2.12,1.45,1.45,0,0,0,1.06.44A1.47,1.47,0,0,0,12.37,23.44Z"/><path class="cls-2" d="M28.5,14.81A13.5,13.5,0,1,1,15,1.31,13.49,13.49,0,0,1,28.5,14.81ZM12.37,23.63l7.38-7.38a1.49,1.49,0,0,0,0-2.12L12.37,6.74a1.5,1.5,0,1,0-2.12,2.13l6.32,6.32-6.32,6.32a1.49,1.49,0,0,0,0,2.12,1.45,1.45,0,0,0,1.06.44A1.47,1.47,0,0,0,12.37,23.63Z"/><path class="cls-3" d="M27.75,14.81A12.75,12.75,0,1,1,15,2.06,12.75,12.75,0,0,1,27.75,14.81ZM12.58,23.26,20,15.87a1.49,1.49,0,0,0,0-2.12L12.58,6.37a1.5,1.5,0,1,0-2.12,2.12l6.32,6.32-6.32,6.32a1.5,1.5,0,1,0,2.12,2.13Z"/></g></g></svg>