<svg xmlns="http://www.w3.org/2000/svg" xmlns:xlink="http://www.w3.org/1999/xlink" viewBox="0 0 30 30"><defs><style>.cls-1{fill:url(#radial-gradient);}.cls-2{fill:url(#radial-gradient-2);}.cls-3{fill:url(#linear-gradient);}.cls-4{fill:url(#linear-gradient-2);}.cls-5{fill:url(#linear-gradient-3);}.cls-6{fill:#0071b7;}</style><radialGradient id="radial-gradient" cx="15" cy="15" r="15" gradientUnits="userSpaceOnUse"><stop offset="0.41"/><stop offset="1" stop-opacity="0"/></radialGradient><radialGradient id="radial-gradient-2" cx="15" cy="16.75" r="12.5" gradientUnits="userSpaceOnUse"><stop offset="0.41" stop-color="#0071b7"/><stop offset="1" stop-color="#0071b7" stop-opacity="0"/></radialGradient><linearGradient id="linear-gradient" x1="15" y1="27.5" x2="15" y2="2.5" gradientUnits="userSpaceOnUse"><stop offset="0" stop-color="#cfcfcf"/><stop offset="1" stop-color="#fff"/></linearGradient><linearGradient id="linear-gradient-2" x1="15" y1="26.25" x2="15" y2="3.75" gradientUnits="userSpaceOnUse"><stop offset="0" stop-color="#fff"/><stop offset="1" stop-color="#cfcfcf"/></linearGradient><linearGradient id="linear-gradient-3" x1="15" y1="25.62" x2="15" y2="4.37" gradientUnits="userSpaceOnUse"><stop offset="0" stop-color="#a8a8a8"/><stop offset="1" stop-color="#fff"/></linearGradient></defs><title>Asset 1</title><g id="Layer_2" data-name="Layer 2"><g id="Layer_1-2" data-name="Layer 1"><circle class="cls-1" cx="15" cy="15" r="15"/><circle class="cls-2" cx="15" cy="16.75" r="12.5"/><circle class="cls-3" cx="15" cy="15" r="12.5"/><circle class="cls-4" cx="15" cy="15" r="11.25"/><circle class="cls-5" cx="15" cy="15" r="10.63"/><path class="cls-6" d="M11.81,11.52H10a.5.5,0,0,1,0-1h1.77a.5.5,0,0,1,0,1Z"/><path class="cls-6" d="M11.81,15.51H10a.5.5,0,0,1-.5-.5.5.5,0,0,1,.5-.5h1.77a.5.5,0,0,1,.5.5A.5.5,0,0,1,11.81,15.51Z"/><path class="cls-6" d="M11.81,19.51H10a.5.5,0,0,1-.5-.5.5.5,0,0,1,.5-.5h1.77a.5.5,0,0,1,.5.5A.5.5,0,0,1,11.81,19.51Z"/><path class="cls-6" d="M19.84,8.12H11.09a.63.63,0,0,0-.63.63v12.5a.62.62,0,0,0,.63.62h8.75a.62.62,0,0,0,.62-.62V8.75A.63.63,0,0,0,19.84,8.12ZM12,20a1,1,0,1,1,0-2,1,1,0,0,1,0,2Zm0-4a1,1,0,1,1,1-1A1,1,0,0,1,12,16Zm0-4a1,1,0,1,1,1-1A1,1,0,0,1,12,12Zm6.46,7.36H14.67a.38.38,0,0,1,0-.75h3.82a.38.38,0,0,1,0,.75Zm0-2H14.67A.37.37,0,0,1,14.3,17a.38.38,0,0,1,.37-.38h3.82a.37.37,0,0,1,.37.38A.36.36,0,0,1,18.49,17.38Zm0-2H14.67a.38.38,0,0,1,0-.75h3.82a.38.38,0,0,1,0,.75Zm0-2H14.67a.38.38,0,0,1,0-.75h3.82a.38.38,0,0,1,0,.75Zm0-2H14.67A.37.37,0,0,1,14.3,11a.38.38,0,0,1,.37-.38h3.82a.37.37,0,0,1,.37.38A.36.36,0,0,1,18.49,11.39Z"/></g></g></svg>