<svg xmlns="http://www.w3.org/2000/svg" xmlns:xlink="http://www.w3.org/1999/xlink" viewBox="0 0 30 30"><defs><style>.cls-1{fill:url(#radial-gradient);}.cls-2{fill:url(#radial-gradient-2);}.cls-3{fill:url(#linear-gradient);}.cls-4{fill:url(#linear-gradient-2);}.cls-5{fill:url(#linear-gradient-3);}.cls-6{fill:#0071b7;}</style><radialGradient id="radial-gradient" cx="15" cy="15" r="15" gradientUnits="userSpaceOnUse"><stop offset="0.41"/><stop offset="1" stop-opacity="0"/></radialGradient><radialGradient id="radial-gradient-2" cx="15" cy="16.75" r="12.5" gradientUnits="userSpaceOnUse"><stop offset="0.41" stop-color="#0071b7"/><stop offset="1" stop-color="#0071b7" stop-opacity="0"/></radialGradient><linearGradient id="linear-gradient" x1="15" y1="27.5" x2="15" y2="2.5" gradientUnits="userSpaceOnUse"><stop offset="0" stop-color="#cfcfcf"/><stop offset="1" stop-color="#fff"/></linearGradient><linearGradient id="linear-gradient-2" x1="15" y1="26.25" x2="15" y2="3.75" gradientUnits="userSpaceOnUse"><stop offset="0" stop-color="#fff"/><stop offset="1" stop-color="#cfcfcf"/></linearGradient><linearGradient id="linear-gradient-3" x1="15" y1="25.63" x2="15" y2="4.38" gradientUnits="userSpaceOnUse"><stop offset="0" stop-color="#a8a8a8"/><stop offset="1" stop-color="#fff"/></linearGradient></defs><title>Asset 6</title><g id="Layer_2" data-name="Layer 2"><g id="Layer_1-2" data-name="Layer 1"><circle class="cls-1" cx="15" cy="15" r="15"/><circle class="cls-2" cx="15" cy="16.75" r="12.5"/><circle class="cls-3" cx="15" cy="15" r="12.5"/><circle class="cls-4" cx="15" cy="15" r="11.25"/><circle class="cls-5" cx="15" cy="15" r="10.63"/><path class="cls-6" d="M21.66,14.84a.64.64,0,0,0-.05-.93L15.5,8.56a.76.76,0,0,0-1,0L8.38,14.19a.64.64,0,0,0,0,.93l.15.16a.66.66,0,0,0,.92.07l.18-.16a.17.17,0,0,1,.28.13v5.46a.84.84,0,0,0,.83.84h6.57c.46,0-.63-4.24-.63-4.7l.17-.6c0-.09-3.14.43-3.05.43h2.71a.16.16,0,0,1,.17.17v4a.64.64,0,0,0,.63.67h2.36a.85.85,0,0,0,.84-.84V15.4a.16.16,0,0,1,.27-.13h0c.16.13.48,0,.73-.25Z"/></g></g></svg>