<svg xmlns="http://www.w3.org/2000/svg" xmlns:xlink="http://www.w3.org/1999/xlink" viewBox="0 0 30 30"><defs><style>.cls-1{fill:url(#radial-gradient);}.cls-2{fill:url(#radial-gradient-2);}.cls-3{fill:url(#linear-gradient);}.cls-4{fill:url(#linear-gradient-2);}.cls-5{fill:url(#linear-gradient-3);}.cls-6{fill:#0071b7;}</style><radialGradient id="radial-gradient" cx="15" cy="15" r="15" gradientUnits="userSpaceOnUse"><stop offset="0.41"/><stop offset="1" stop-opacity="0"/></radialGradient><radialGradient id="radial-gradient-2" cx="15" cy="16.75" r="12.5" gradientUnits="userSpaceOnUse"><stop offset="0.41" stop-color="#0071b7"/><stop offset="1" stop-color="#0071b7" stop-opacity="0"/></radialGradient><linearGradient id="linear-gradient" x1="15" y1="27.5" x2="15" y2="2.5" gradientUnits="userSpaceOnUse"><stop offset="0" stop-color="#cfcfcf"/><stop offset="1" stop-color="#fff"/></linearGradient><linearGradient id="linear-gradient-2" x1="15" y1="26.25" x2="15" y2="3.75" gradientUnits="userSpaceOnUse"><stop offset="0" stop-color="#fff"/><stop offset="1" stop-color="#cfcfcf"/></linearGradient><linearGradient id="linear-gradient-3" x1="15" y1="25.63" x2="15" y2="4.37" gradientUnits="userSpaceOnUse"><stop offset="0" stop-color="#a8a8a8"/><stop offset="1" stop-color="#fff"/></linearGradient></defs><title>Asset 10</title><g id="Layer_2" data-name="Layer 2"><g id="Layer_1-2" data-name="Layer 1"><circle class="cls-1" cx="15" cy="15" r="15"/><circle class="cls-2" cx="15" cy="16.75" r="12.5"/><circle class="cls-3" cx="15" cy="15" r="12.5"/><circle class="cls-4" cx="15" cy="15" r="11.25"/><circle class="cls-5" cx="15" cy="15" r="10.63"/><path class="cls-6" d="M18.43,9.77a.67.67,0,0,0-.49.21l-3.56,2.28H11.57a.68.68,0,0,0-.68.68v4.12a.68.68,0,0,0,.68.68h2.81L17.94,20a.67.67,0,0,0,1,0,.66.66,0,0,0,.2-.48V10.46a.7.7,0,0,0-.68-.69Z"/></g></g></svg>