<svg xmlns="http://www.w3.org/2000/svg" xmlns:xlink="http://www.w3.org/1999/xlink" viewBox="0 0 30 30"><defs><style>.cls-1{fill:url(#radial-gradient);}.cls-2{fill:url(#radial-gradient-2);}.cls-3{fill:url(#linear-gradient);}.cls-4{fill:url(#linear-gradient-2);}.cls-5{fill:url(#linear-gradient-3);}.cls-6{fill:#0071b7;}</style><radialGradient id="radial-gradient" cx="15" cy="15" r="15" gradientUnits="userSpaceOnUse"><stop offset="0.41"/><stop offset="1" stop-opacity="0"/></radialGradient><radialGradient id="radial-gradient-2" cx="15" cy="16.75" r="12.5" gradientUnits="userSpaceOnUse"><stop offset="0.41" stop-color="#0071b7"/><stop offset="1" stop-color="#0071b7" stop-opacity="0"/></radialGradient><linearGradient id="linear-gradient" x1="15" y1="27.5" x2="15" y2="2.5" gradientUnits="userSpaceOnUse"><stop offset="0" stop-color="#cfcfcf"/><stop offset="1" stop-color="#fff"/></linearGradient><linearGradient id="linear-gradient-2" x1="15" y1="26.25" x2="15" y2="3.75" gradientUnits="userSpaceOnUse"><stop offset="0" stop-color="#fff"/><stop offset="1" stop-color="#cfcfcf"/></linearGradient><linearGradient id="linear-gradient-3" x1="15" y1="25.63" x2="15" y2="4.38" gradientUnits="userSpaceOnUse"><stop offset="0" stop-color="#a8a8a8"/><stop offset="1" stop-color="#fff"/></linearGradient></defs><title>Asset 3</title><g id="Layer_2" data-name="Layer 2"><g id="Layer_1-2" data-name="Layer 1"><circle class="cls-1" cx="15" cy="15" r="15"/><circle class="cls-2" cx="15" cy="16.75" r="12.5"/><circle class="cls-3" cx="15" cy="15" r="12.5"/><circle class="cls-4" cx="15" cy="15" r="11.25"/><circle class="cls-5" cx="15" cy="15" r="10.63"/><path class="cls-6" d="M15,7.5A7.5,7.5,0,1,0,22.5,15,7.5,7.5,0,0,0,15,7.5Zm2.44,8-3.75,2.17a.71.71,0,0,1-.31.08.72.72,0,0,1-.32-.08.64.64,0,0,1-.31-.54V12.83a.63.63,0,0,1,.94-.54l3.75,2.17a.63.63,0,0,1,0,1.08Z"/></g></g></svg>