<svg xmlns="http://www.w3.org/2000/svg" xmlns:xlink="http://www.w3.org/1999/xlink" viewBox="0 0 30 30"><defs><style>.cls-1{fill:url(#radial-gradient);}.cls-2{fill:url(#radial-gradient-2);}.cls-3{fill:url(#linear-gradient);}.cls-4{fill:url(#linear-gradient-2);}.cls-5{fill:url(#linear-gradient-3);}.cls-6{fill:#0071b7;}</style><radialGradient id="radial-gradient" cx="15" cy="15" r="15" gradientUnits="userSpaceOnUse"><stop offset="0.41"/><stop offset="1" stop-opacity="0"/></radialGradient><radialGradient id="radial-gradient-2" cx="15" cy="16.75" r="12.5" gradientUnits="userSpaceOnUse"><stop offset="0.41" stop-color="#0071b7"/><stop offset="1" stop-color="#0071b7" stop-opacity="0"/></radialGradient><linearGradient id="linear-gradient" x1="15" y1="27.5" x2="15" y2="2.5" gradientUnits="userSpaceOnUse"><stop offset="0" stop-color="#cfcfcf"/><stop offset="1" stop-color="#fff"/></linearGradient><linearGradient id="linear-gradient-2" x1="15" y1="26.25" x2="15" y2="3.75" gradientUnits="userSpaceOnUse"><stop offset="0" stop-color="#fff"/><stop offset="1" stop-color="#cfcfcf"/></linearGradient><linearGradient id="linear-gradient-3" x1="15" y1="25.63" x2="15" y2="4.37" gradientUnits="userSpaceOnUse"><stop offset="0" stop-color="#a8a8a8"/><stop offset="1" stop-color="#fff"/></linearGradient></defs><title>Asset 2</title><g id="Layer_2" data-name="Layer 2"><g id="Layer_1-2" data-name="Layer 1"><circle class="cls-1" cx="15" cy="15" r="15"/><circle class="cls-2" cx="15" cy="16.75" r="12.5"/><circle class="cls-3" cx="15" cy="15" r="12.5"/><circle class="cls-4" cx="15" cy="15" r="11.25"/><circle class="cls-5" cx="15" cy="15" r="10.63"/><path class="cls-6" d="M15.25,9.77a.63.63,0,0,0-.48.21L11.2,12.26H8.4a.68.68,0,0,0-.69.68v4.12a.68.68,0,0,0,.69.68h2.8L14.77,20a.63.63,0,0,0,.48.21.66.66,0,0,0,.48-.21.62.62,0,0,0,.2-.48V10.46a.62.62,0,0,0-.2-.48A.66.66,0,0,0,15.25,9.77Z"/><path class="cls-6" d="M19.09,16.52a2.74,2.74,0,0,0,0-3,2.49,2.49,0,0,0-1.2-1,.68.68,0,0,0-.27-.05.67.67,0,0,0-.48.2.63.63,0,0,0-.2.49.62.62,0,0,0,.12.38,1.3,1.3,0,0,0,.31.26l.37.25a1.2,1.2,0,0,1,.31.38,1.5,1.5,0,0,1,0,1.22,1.2,1.2,0,0,1-.31.38l-.37.25a1.3,1.3,0,0,0-.31.26.68.68,0,0,0,.08.87.67.67,0,0,0,.48.2.68.68,0,0,0,.27-.05A2.54,2.54,0,0,0,19.09,16.52Z"/><path class="cls-6" d="M19,10a.71.71,0,0,0-.28-.06.66.66,0,0,0-.48.21.62.62,0,0,0-.2.48.68.68,0,0,0,.41.63,7.58,7.58,0,0,1,.82.47,4.11,4.11,0,0,1,0,6.62,6.68,6.68,0,0,1-.82.47.68.68,0,0,0-.41.63.62.62,0,0,0,.2.48A.66.66,0,0,0,19,20a5.3,5.3,0,0,0,2.41-2,5.41,5.41,0,0,0,.91-3,5.36,5.36,0,0,0-.91-3A5.26,5.26,0,0,0,19,10Z"/></g></g></svg>